<?xml version="1.0" standalone="no"?>
<!DOCTYPE svg PUBLIC "-//W3C//DTD SVG 20010904//EN"
 "http://www.w3.org/TR/2001/REC-SVG-20010904/DTD/svg10.dtd">
<svg version="1.0" xmlns="http://www.w3.org/2000/svg"
 width="128.000000pt" height="128.000000pt" viewBox="0 0 128.000000 128.000000"
 preserveAspectRatio="xMidYMid meet">
<metadata>
Created by potrace 1.11, written by Peter Selinger 2001-2013
</metadata>
<g transform="translate(0.000000,128.000000) scale(0.100000,-0.100000)"
fill="#000000" stroke="none">
<path d="M213 1095 c0 -127 4 -185 11 -186 15 -1 783 -1 817 0 l26 1 -1 183
-1 182 -52 3 -53 3 0 -134 0 -134 -320 0 -320 0 0 134 0 133 -53 0 -54 0 0
-185z"/>
<path d="M589 1263 c-4 -83 -3 -171 2 -183 5 -10 19 -14 41 -13 18 1 40 2 48
2 12 1 15 19 14 103 l0 103 -52 3 c-44 3 -52 0 -53 -15z"/>
<path d="M429 788 c-4 -58 -3 -402 1 -408 3 -5 27 -7 54 -7 l49 2 1 213 1 212
-52 0 c-35 0 -53 -4 -54 -12z"/>
<path d="M747 600 c1 -110 2 -206 2 -213 1 -9 18 -14 51 -14 50 -2 50 -1 51
30 0 18 1 113 2 212 l0 180 -54 3 -54 3 2 -201z"/>
<path d="M215 273 c1 -27 3 -51 3 -54 1 -3 192 -5 425 -5 l422 1 0 50 0 50
-426 3 -426 2 2 -47z"/>
<path d="M54 96 c-2 -6 -3 -29 -1 -51 l2 -40 587 -3 586 -2 -1 52 -2 53 -583
1 c-416 1 -585 -2 -588 -10z"/>
</g>
</svg>
